<?xml version="1.0" standalone="no"?>
<!DOCTYPE svg PUBLIC "-//W3C//DTD SVG 20010904//EN"
 "http://www.w3.org/TR/2001/REC-SVG-20010904/DTD/svg10.dtd">
<svg version="1.0" xmlns="http://www.w3.org/2000/svg"
 width="512.000000pt" height="512.000000pt" viewBox="0 0 512.000000 512.000000"
 preserveAspectRatio="xMidYMid meet">
<metadata>
Created by potrace 1.14, written by Peter Selinger 2001-2017
</metadata>
<g transform="translate(0.000000,512.000000) scale(0.100000,-0.100000)"
fill="#000000" stroke="none">
<path d="M0 2560 l0 -2560 2560 0 2560 0 0 2560 0 2560 -2560 0 -2560 0 0
-2560z m4210 1256 c0 -2 3 -11 6 -20 9 -23 -13 -20 -26 4 -9 16 -8 20 5 20 8
0 15 -2 15 -4z m-500 -169 c0 -7 -5 -18 -11 -24 -7 -7 -3 -12 15 -17 32 -8 33
-31 7 -108 -43 -126 -286 -564 -349 -630 -34 -37 -42 -35 -42 10 0 29 -11 55
-42 102 -43 63 -43 64 -43 154 0 69 4 99 18 125 25 46 99 115 139 131 58 24
115 70 149 123 35 56 126 147 147 147 6 0 12 -6 12 -13z m-2260 -160 c17 -19
33 -28 50 -27 107 8 180 4 211 -12 19 -9 45 -21 59 -27 26 -11 48 -24 92 -53
33 -22 52 -23 83 -2 26 17 24 18 84 -56 l20 -25 21 23 c28 30 64 23 103 -19
22 -24 27 -39 29 -87 3 -92 -1 -113 -32 -179 -29 -61 -60 -89 -45 -40 19 63
19 67 -11 67 -15 0 -37 -8 -48 -18 -38 -34 -113 -55 -176 -49 -36 3 -62 1 -69
-6 -14 -14 -14 -64 -1 -72 15 -9 12 -35 -4 -35 -59 0 -398 506 -423 633 -5 24
-3 26 13 21 11 -4 30 -20 44 -37z m3184 -923 c17 -7 22 -34 6 -34 -5 0 -14 9
-20 20 -12 22 -10 23 14 14z m-2454 -269 c0 -8 -7 -15 -15 -15 -8 0 -15 7 -15
15 0 8 7 15 15 15 8 0 15 -7 15 -15z m304 -922 c20 -40 56 -190 56 -235 0 -34
-3 -38 -24 -38 -13 0 -31 -3 -40 -6 -13 -5 -16 2 -16 40 0 28 -9 64 -21 88
-22 43 -22 93 0 151 13 34 27 34 45 0z m272 -18 c9 -35 -3 -99 -25 -143 -23
-46 -66 -86 -80 -77 -17 10 -13 116 5 150 25 49 64 95 79 95 8 0 17 -11 21
-25z"/>
</g>
</svg>
